<svg version="1.1" viewBox="0.0 0.0 600.0 371.0" fill="none" stroke="none" stroke-linecap="square" stroke-miterlimit="10" width="600" height="371" xmlns:xlink="http://www.w3.org/1999/xlink" xmlns="http://www.w3.org/2000/svg"><path fill="#ffffff" fill-opacity="0.0" d="M0 0L600.0 0L600.0 371.0L0 371.0L0 0Z" fill-rule="nonzero"/><path stroke="#333333" stroke-width="1.0" stroke-linecap="butt" d="M52.5 345.5L484.5 345.5" fill-rule="nonzero"/><path stroke="#cccccc" stroke-width="1.0" stroke-linecap="butt" d="M52.5 298.5L484.5 298.5" fill-rule="nonzero"/><path stroke="#cccccc" stroke-width="1.0" stroke-linecap="butt" d="M52.5 250.5L484.5 250.5" fill-rule="nonzero"/><path stroke="#cccccc" stroke-width="1.0" stroke-linecap="butt" d="M52.5 203.5L484.5 203.5" fill-rule="nonzero"/><path stroke="#cccccc" stroke-width="1.0" stroke-linecap="butt" d="M52.5 156.5L484.5 156.5" fill-rule="nonzero"/><path stroke="#cccccc" stroke-width="1.0" stroke-linecap="butt" d="M52.5 109.5L484.5 109.5" fill-rule="nonzero"/><path stroke="#cccccc" stroke-width="1.0" stroke-linecap="butt" d="M52.5 61.5L484.5 61.5" fill-rule="nonzero"/><path stroke="#e6e6e6" stroke-width="1.0" stroke-linecap="butt" d="M52.5 333.5L484.5 333.5" fill-rule="nonzero"/><path stroke="#e6e6e6" stroke-width="1.0" stroke-linecap="butt" d="M52.5 321.5L484.5 321.5" fill-rule="nonzero"/><path stroke="#e6e6e6" stroke-width="1.0" stroke-linecap="butt" d="M52.5 310.5L484.5 310.5" fill-rule="nonzero"/><path stroke="#e6e6e6" stroke-width="1.0" stroke-linecap="butt" d="M52.5 286.5L484.5 286.5" fill-rule="nonzero"/><path stroke="#e6e6e6" stroke-width="1.0" stroke-linecap="butt" d="M52.5 274.5L484.5 274.5" fill-rule="nonzero"/><path stroke="#e6e6e6" stroke-width="1.0" stroke-linecap="butt" d="M52.5 262.5L484.5 262.5" fill-rule="nonzero"/><path stroke="#e6e6e6" stroke-width="1.0" stroke-linecap="butt" d="M52.5 239.5L484.5 239.5" fill-rule="nonzero"/><path stroke="#e6e6e6" stroke-width="1.0" stroke-linecap="butt" d="M52.5 227.5L484.5 227.5" fill-rule="nonzero"/><path stroke="#e6e6e6" stroke-width="1.0" stroke-linecap="butt" d="M52.5 215.5L484.5 215.5" fill-rule="nonzero"/><path stroke="#e6e6e6" stroke-width="1.0" stroke-linecap="butt" d="M52.5 191.5L484.5 191.5" fill-rule="nonzero"/><path stroke="#e6e6e6" stroke-width="1.0" stroke-linecap="butt" d="M52.5 180.5L484.5 180.5" fill-rule="nonzero"/><path stroke="#e6e6e6" stroke-width="1.0" stroke-linecap="butt" d="M52.5 168.5L484.5 168.5" fill-rule="nonzero"/><path stroke="#e6e6e6" stroke-width="1.0" stroke-linecap="butt" d="M52.5 144.5L484.5 144.5" fill-rule="nonzero"/><path stroke="#e6e6e6" stroke-width="1.0" stroke-linecap="butt" d="M52.5 132.5L484.5 132.5" fill-rule="nonzero"/><path stroke="#e6e6e6" stroke-width="1.0" stroke-linecap="butt" d="M52.5 120.5L484.5 120.5" fill-rule="nonzero"/><path stroke="#e6e6e6" stroke-width="1.0" stroke-linecap="butt" d="M52.5 97.5L484.5 97.5" fill-rule="nonzero"/><path stroke="#e6e6e6" stroke-width="1.0" stroke-linecap="butt" d="M52.5 85.5L484.5 85.5" fill-rule="nonzero"/><path stroke="#e6e6e6" stroke-width="1.0" stroke-linecap="butt" d="M52.5 73.5L484.5 73.5" fill-rule="nonzero"/><clipPath id="id_0"><path d="M52.55 61.916668L484.61444 61.916668L484.61444 345.45L52.55 345.45L52.55 61.916668Z" clip-rule="nonzero"/></clipPath><path stroke="#000000" stroke-width="0.0" stroke-linecap="butt" stroke-opacity="0.0" clip-path="url(#id_0)" d="M190.0 345.0L165.0 345.0L165.0 279.0C165.0 277.89542 165.89543 277.0 167.0 277.0L188.0 277.0C189.10457 277.0 190.0 277.89542 190.0 279.0Z" fill-rule="nonzero"/><path fill="#4285f4" clip-path="url(#id_0)" d="M190.0 345.0L165.0 345.0L165.0 279.0C165.0 277.89542 165.89543 277.0 167.0 277.0L188.0 277.0C189.10457 277.0 190.0 277.89542 190.0 279.0Z" fill-rule="nonzero"/><path stroke="#000000" stroke-width="0.0" stroke-linecap="butt" stroke-opacity="0.0" clip-path="url(#id_0)" d="M216.0 345.0L191.0 345.0L191.0 280.0C191.0 278.89542 191.89543 278.0 193.0 278.0L214.0 278.0C215.10457 278.0 216.0 278.89542 216.0 280.0Z" fill-rule="nonzero"/><path fill="#ea4335" clip-path="url(#id_0)" d="M216.0 345.0L191.0 345.0L191.0 280.0C191.0 278.89542 191.89543 278.0 193.0 278.0L214.0 278.0C215.10457 278.0 216.0 278.89542 216.0 280.0Z" fill-rule="nonzero"/><path stroke="#000000" stroke-width="0.0" stroke-linecap="butt" stroke-opacity="0.0" clip-path="url(#id_0)" d="M242.0 345.0L217.0 345.0L217.0 229.0C217.0 227.89543 217.89543 227.0 219.0 227.0L240.0 227.0C241.10457 227.0 242.0 227.89543 242.0 229.0Z" fill-rule="nonzero"/><path fill="#fbbc04" clip-path="url(#id_0)" d="M242.0 345.0L217.0 345.0L217.0 229.0C217.0 227.89543 217.89543 227.0 219.0 227.0L240.0 227.0C241.10457 227.0 242.0 227.89543 242.0 229.0Z" fill-rule="nonzero"/><path stroke="#000000" stroke-width="0.0" stroke-linecap="butt" stroke-opacity="0.0" clip-path="url(#id_0)" d="M268.0 345.0L243.0 345.0L243.0 190.0C243.0 188.89543 243.89543 188.0 245.0 188.0L266.0 188.0C267.10458 188.0 268.0 188.89543 268.0 190.0Z" fill-rule="nonzero"/><path fill="#34a853" clip-path="url(#id_0)" d="M268.0 345.0L243.0 345.0L243.0 190.0C243.0 188.89543 243.89543 188.0 245.0 188.0L266.0 188.0C267.10458 188.0 268.0 188.89543 268.0 190.0Z" fill-rule="nonzero"/><path stroke="#000000" stroke-width="0.0" stroke-linecap="butt" stroke-opacity="0.0" clip-path="url(#id_0)" d="M294.0 345.0L269.0 345.0L269.0 77.0C269.0 75.89543 269.89542 75.0 271.0 75.0L292.0 75.0C293.10458 75.0 294.0 75.89543 294.0 77.0Z" fill-rule="nonzero"/><path fill="#ff6d01" clip-path="url(#id_0)" d="M294.0 345.0L269.0 345.0L269.0 77.0C269.0 75.89543 269.89542 75.0 271.0 75.0L292.0 75.0C293.10458 75.0 294.0 75.89543 294.0 77.0Z" fill-rule="nonzero"/><path stroke="#000000" stroke-width="0.0" stroke-linecap="butt" stroke-opacity="0.0" clip-path="url(#id_0)" d="M320.0 345.0L295.0 345.0L295.0 278.0C295.0 276.89542 295.89542 276.0 297.0 276.0L318.0 276.0C319.10458 276.0 320.0 276.89542 320.0 278.0Z" fill-rule="nonzero"/><path fill="#46bdc6" clip-path="url(#id_0)" d="M320.0 345.0L295.0 345.0L295.0 278.0C295.0 276.89542 295.89542 276.0 297.0 276.0L318.0 276.0C319.10458 276.0 320.0 276.89542 320.0 278.0Z" fill-rule="nonzero"/><path stroke="#000000" stroke-width="0.0" stroke-linecap="butt" stroke-opacity="0.0" clip-path="url(#id_0)" d="M346.0 345.0L321.0 345.0L321.0 270.0C321.0 268.89542 321.89542 268.0 323.0 268.0L344.0 268.0C345.10458 268.0 346.0 268.89542 346.0 270.0Z" fill-rule="nonzero"/><path fill="#7baaf7" clip-path="url(#id_0)" d="M346.0 345.0L321.0 345.0L321.0 270.0C321.0 268.89542 321.89542 268.0 323.0 268.0L344.0 268.0C345.10458 268.0 346.0 268.89542 346.0 270.0Z" fill-rule="nonzero"/><path stroke="#000000" stroke-width="0.0" stroke-linecap="butt" stroke-opacity="0.0" clip-path="url(#id_0)" d="M372.0 345.0L347.0 345.0L347.0 276.0C347.0 274.89542 347.89542 274.0 349.0 274.0L370.0 274.0C371.10458 274.0 372.0 274.89542 372.0 276.0Z" fill-rule="nonzero"/><path fill="#f07b72" clip-path="url(#id_0)" d="M372.0 345.0L347.0 345.0L347.0 276.0C347.0 274.89542 347.89542 274.0 349.0 274.0L370.0 274.0C371.10458 274.0 372.0 274.89542 372.0 276.0Z" fill-rule="nonzero"/><path fill="#000000" d="M40.05 345.21564Q40.05 343.6844 40.3625 342.7625Q40.675 341.825 41.284374 341.325Q41.909374 340.825 42.846874 340.825Q43.534374 340.825 44.05 341.10626Q44.58125 341.3875 44.925 341.91876Q45.26875 342.4344 45.45625 343.1844Q45.64375 343.9344 45.64375 345.21564Q45.64375 346.73126 45.33125 347.65314Q45.034374 348.575 44.409374 349.09064Q43.8 349.59064 42.846874 349.59064Q41.6125 349.59064 40.89375 348.7Q40.05 347.6375 40.05 345.21564ZM41.128124 345.21564Q41.128124 347.325 41.628124 348.02814Q42.128124 348.73126 42.846874 348.73126Q43.58125 348.73126 44.065624 348.02814Q44.565624 347.325 44.565624 345.21564Q44.565624 343.09064 44.065624 342.40314Q43.58125 341.7 42.83125 341.7Q42.1125 341.7 41.675 342.3094Q41.128124 343.09064 41.128124 345.21564Z" fill-rule="nonzero"/><path fill="#000000" d="M31.596874 301.17883L31.596874 302.19446L25.909374 302.19446Q25.909374 301.81946 26.034374 301.46008Q26.253124 300.88196 26.721874 300.31946Q27.20625 299.75696 28.1125 299.02258Q29.51875 297.86633 30.003124 297.19446Q30.503124 296.52258 30.503124 295.92883Q30.503124 295.30383 30.05 294.88196Q29.596874 294.44446 28.878124 294.44446Q28.1125 294.44446 27.659374 294.89758Q27.20625 295.3507 27.190624 296.1632L26.1125 296.05383Q26.221874 294.83508 26.940624 294.21008Q27.675 293.56946 28.909374 293.56946Q30.14375 293.56946 30.8625 294.25696Q31.58125 294.94446 31.58125 295.96008Q31.58125 296.4757 31.3625 296.9757Q31.159374 297.46008 30.659374 298.02258Q30.175 298.56946 29.05 299.52258Q28.096874 300.31946 27.815624 300.61633Q27.55 300.89758 27.378124 301.17883L31.596874 301.17883ZM33.05 297.96008Q33.05 296.42883 33.3625 295.50696Q33.675 294.56946 34.284374 294.06946Q34.909374 293.56946 35.846874 293.56946Q36.534374 293.56946 37.05 293.8507Q37.58125 294.13196 37.925 294.6632Q38.26875 295.17883 38.45625 295.92883Q38.64375 296.67883 38.64375 297.96008Q38.64375 299.4757 38.33125 300.39758Q38.034374 301.31946 37.409374 301.83508Q36.8 302.33508 35.846874 302.33508Q34.6125 302.33508 33.89375 301.44446Q33.05 300.38196 33.05 297.96008ZM34.128124 297.96008Q34.128124 300.06946 34.628124 300.77258Q35.128124 301.4757 35.846874 301.4757Q36.58125 301.4757 37.065624 300.77258Q37.565624 300.06946 37.565624 297.96008Q37.565624 295.83508 37.065624 295.14758Q36.58125 294.44446 35.83125 294.44446Q35.1125 294.44446 34.675 295.05383Q34.128124 295.83508 34.128124 297.96008ZM40.05 297.96008Q40.05 296.42883 40.3625 295.50696Q40.675 294.56946 41.284374 294.06946Q41.909374 293.56946 42.846874 293.56946Q43.534374 293.56946 44.05 293.8507Q44.58125 294.13196 44.925 294.6632Q45.26875 295.17883 45.45625 295.92883Q45.64375 296.67883 45.64375 297.96008Q45.64375 299.4757 45.33125 300.39758Q45.034374 301.31946 44.409374 301.83508Q43.8 302.33508 42.846874 302.33508Q41.6125 302.33508 40.89375 301.44446Q40.05 300.38196 40.05 297.96008ZM41.128124 297.96008Q41.128124 300.06946 41.628124 300.77258Q42.128124 301.4757 42.846874 301.4757Q43.58125 301.4757 44.065624 300.77258Q44.565624 300.06946 44.565624 297.96008Q44.565624 295.83508 44.065624 295.14758Q43.58125 294.44446 42.83125 294.44446Q42.1125 294.44446 41.675 295.05383Q41.128124 295.83508 41.128124 297.96008Z" fill-rule="nonzero"/><path fill="#000000" d="M29.425 254.93889L29.425 252.87639L25.70625 252.87639L25.70625 251.90764L29.628124 246.34514L30.4875 246.34514L30.4875 251.90764L31.64375 251.90764L31.64375 252.87639L30.4875 252.87639L30.4875 254.93889L29.425 254.93889ZM29.425 251.90764L29.425 248.04826L26.7375 251.90764L29.425 251.90764ZM33.05 250.70451Q33.05 249.17326 33.3625 248.25139Q33.675 247.31389 34.284374 246.81389Q34.909374 246.31389 35.846874 246.31389Q36.534374 246.31389 37.05 246.59514Q37.58125 246.87639 37.925 247.40764Q38.26875 247.92326 38.45625 248.67326Q38.64375 249.42326 38.64375 250.70451Q38.64375 252.22014 38.33125 253.14201Q38.034374 254.06389 37.409374 254.57951Q36.8 255.07951 35.846874 255.07951Q34.6125 255.07951 33.89375 254.18889Q33.05 253.12639 33.05 250.70451ZM34.128124 250.70451Q34.128124 252.81389 34.628124 253.51701Q35.128124 254.22014 35.846874 254.22014Q36.58125 254.22014 37.065624 253.51701Q37.565624 252.81389 37.565624 250.70451Q37.565624 248.57951 37.065624 247.89201Q36.58125 247.18889 35.83125 247.18889Q35.1125 247.18889 34.675 247.79826Q34.128124 248.57951 34.128124 250.70451ZM40.05 250.70451Q40.05 249.17326 40.3625 248.25139Q40.675 247.31389 41.284374 246.81389Q41.909374 246.31389 42.846874 246.31389Q43.534374 246.31389 44.05 246.59514Q44.58125 246.87639 44.925 247.40764Q45.26875 247.92326 45.45625 248.67326Q45.64375 249.42326 45.64375 250.70451Q45.64375 252.22014 45.33125 253.14201Q45.034374 254.06389 44.409374 254.57951Q43.8 255.07951 42.846874 255.07951Q41.6125 255.07951 40.89375 254.18889Q40.05 253.12639 40.05 250.70451ZM41.128124 250.70451Q41.128124 252.81389 41.628124 253.51701Q42.128124 254.22014 42.846874 254.22014Q43.58125 254.22014 44.065624 253.51701Q44.565624 252.81389 44.565624 250.70451Q44.565624 248.57951 44.065624 247.89201Q43.58125 247.18889 42.83125 247.18889Q42.1125 247.18889 41.675 247.79826Q41.128124 248.57951 41.128124 250.70451Z" fill-rule="nonzero"/><path fill="#000000" d="M31.51875 201.19896L30.471874 201.27708Q30.33125 200.65208 30.08125 200.37083Q29.64375 199.91771 29.01875 199.91771Q28.51875 199.91771 28.128124 200.19896Q27.64375 200.57396 27.346874 201.27708Q27.065624 201.96458 27.05 203.24583Q27.425 202.66771 27.971874 202.38646Q28.534374 202.10521 29.14375 202.10521Q30.190624 202.10521 30.925 202.88646Q31.675 203.66771 31.675 204.88646Q31.675 205.69896 31.315624 206.40208Q30.971874 207.08958 30.3625 207.46458Q29.753124 207.82396 28.9875 207.82396Q27.659374 207.82396 26.83125 206.85521Q26.003124 205.88646 26.003124 203.66771Q26.003124 201.16771 26.925 200.04271Q27.721874 199.05833 29.08125 199.05833Q30.096874 199.05833 30.7375 199.63646Q31.39375 200.19896 31.51875 201.19896ZM27.221874 204.90208Q27.221874 205.44896 27.440624 205.94896Q27.675 206.43333 28.08125 206.69896Q28.503124 206.96458 28.971874 206.96458Q29.628124 206.96458 30.1125 206.43333Q30.596874 205.88646 30.596874 204.96458Q30.596874 204.07396 30.1125 203.55833Q29.64375 203.04271 28.925 203.04271Q28.20625 203.04271 27.70625 203.55833Q27.221874 204.07396 27.221874 204.90208ZM33.05 203.44896Q33.05 201.91771 33.3625 200.99583Q33.675 200.05833 34.284374 199.55833Q34.909374 199.05833 35.846874 199.05833Q36.534374 199.05833 37.05 199.33958Q37.58125 199.62083 37.925 200.15208Q38.26875 200.66771 38.45625 201.41771Q38.64375 202.16771 38.64375 203.44896Q38.64375 204.96458 38.33125 205.88646Q38.034374 206.80833 37.409374 207.32396Q36.8 207.82396 35.846874 207.82396Q34.6125 207.82396 33.89375 206.93333Q33.05 205.87083 33.05 203.44896ZM34.128124 203.44896Q34.128124 205.55833 34.628124 206.26146Q35.128124 206.96458 35.846874 206.96458Q36.58125 206.96458 37.065624 206.26146Q37.565624 205.55833 37.565624 203.44896Q37.565624 201.32396 37.065624 200.63646Q36.58125 199.93333 35.83125 199.93333Q35.1125 199.93333 34.675 200.54271Q34.128124 201.32396 34.128124 203.44896ZM40.05 203.44896Q40.05 201.91771 40.3625 200.99583Q40.675 200.05833 41.284374 199.55833Q41.909374 199.05833 42.846874 199.05833Q43.534374 199.05833 44.05 199.33958Q44.58125 199.62083 44.925 200.15208Q45.26875 200.66771 45.45625 201.41771Q45.64375 202.16771 45.64375 203.44896Q45.64375 204.96458 45.33125 205.88646Q45.034374 206.80833 44.409374 207.32396Q43.8 207.82396 42.846874 207.82396Q41.6125 207.82396 40.89375 206.93333Q40.05 205.87083 40.05 203.44896ZM41.128124 203.44896Q41.128124 205.55833 41.628124 206.26146Q42.128124 206.96458 42.846874 206.96458Q43.58125 206.96458 44.065624 206.26146Q44.565624 205.55833 44.565624 203.44896Q44.565624 201.32396 44.065624 200.63646Q43.58125 199.93333 42.83125 199.93333Q42.1125 199.93333 41.675 200.54271Q41.128124 201.32396 41.128124 203.44896Z" fill-rule="nonzero"/><path fill="#000000" d="M27.675 155.77153Q27.01875 155.52153 26.690624 155.08403Q26.378124 154.6309 26.378124 154.02153Q26.378124 153.08403 27.05 152.4434Q27.7375 151.80278 28.846874 151.80278Q29.971874 151.80278 30.659374 152.45903Q31.346874 153.11528 31.346874 154.05278Q31.346874 154.64653 31.034374 155.08403Q30.721874 155.52153 30.08125 155.77153Q30.878124 156.02153 31.284374 156.59966Q31.690624 157.17778 31.690624 157.97466Q31.690624 159.0684 30.909374 159.8184Q30.14375 160.5684 28.8625 160.5684Q27.596874 160.5684 26.815624 159.8184Q26.034374 159.0684 26.034374 157.9434Q26.034374 157.09966 26.45625 156.53716Q26.89375 155.97466 27.675 155.77153ZM27.45625 153.97466Q27.45625 154.58403 27.846874 154.97466Q28.253124 155.36528 28.878124 155.36528Q29.4875 155.36528 29.878124 154.99028Q30.26875 154.59966 30.26875 154.03716Q30.26875 153.45903 29.8625 153.0684Q29.45625 152.66216 28.8625 152.66216Q28.253124 152.66216 27.846874 153.05278Q27.45625 153.4434 27.45625 153.97466ZM27.128124 157.9434Q27.128124 158.39653 27.33125 158.8184Q27.55 159.24028 27.971874 159.47466Q28.39375 159.70903 28.878124 159.70903Q29.628124 159.70903 30.1125 159.22466Q30.6125 158.74028 30.6125 157.99028Q30.6125 157.22466 30.1125 156.72466Q29.6125 156.22466 28.846874 156.22466Q28.096874 156.22466 27.6125 156.72466Q27.128124 157.20903 27.128124 157.9434ZM33.05 156.1934Q33.05 154.66216 33.3625 153.74028Q33.675 152.80278 34.284374 152.30278Q34.909374 151.80278 35.846874 151.80278Q36.534374 151.80278 37.05 152.08403Q37.58125 152.36528 37.925 152.89653Q38.26875 153.41216 38.45625 154.16216Q38.64375 154.91216 38.64375 156.1934Q38.64375 157.70903 38.33125 158.6309Q38.034374 159.55278 37.409374 160.0684Q36.8 160.5684 35.846874 160.5684Q34.6125 160.5684 33.89375 159.67778Q33.05 158.61528 33.05 156.1934ZM34.128124 156.1934Q34.128124 158.30278 34.628124 159.0059Q35.128124 159.70903 35.846874 159.70903Q36.58125 159.70903 37.065624 159.0059Q37.565624 158.30278 37.565624 156.1934Q37.565624 154.0684 37.065624 153.3809Q36.58125 152.67778 35.83125 152.67778Q35.1125 152.67778 34.675 153.28716Q34.128124 154.0684 34.128124 156.1934ZM40.05 156.1934Q40.05 154.66216 40.3625 153.74028Q40.675 152.80278 41.284374 152.30278Q41.909374 151.80278 42.846874 151.80278Q43.534374 151.80278 44.05 152.08403Q44.58125 152.36528 44.925 152.89653Q45.26875 153.41216 45.45625 154.16216Q45.64375 154.91216 45.64375 156.1934Q45.64375 157.70903 45.33125 158.6309Q45.034374 159.55278 44.409374 160.0684Q43.8 160.5684 42.846874 160.5684Q41.6125 160.5684 40.89375 159.67778Q40.05 158.61528 40.05 156.1934ZM41.128124 156.1934Q41.128124 158.30278 41.628124 159.0059Q42.128124 159.70903 42.846874 159.70903Q43.58125 159.70903 44.065624 159.0059Q44.565624 158.30278 44.565624 156.1934Q44.565624 154.0684 44.065624 153.3809Q43.58125 152.67778 42.83125 152.67778Q42.1125 152.67778 41.675 153.28716Q41.128124 154.0684 41.128124 156.1934Z" fill-rule="nonzero"/><path fill="#000000" d="M23.01875 113.172226L21.971874 113.172226L21.971874 106.453476Q21.58125 106.81285 20.95625 107.18785Q20.346874 107.547226 19.8625 107.7191L19.8625 106.703476Q20.7375 106.2816 21.39375 105.703476Q22.065624 105.109726 22.346874 104.547226L23.01875 104.547226L23.01875 113.172226ZM26.05 108.93785Q26.05 107.4066 26.3625 106.484726Q26.675 105.547226 27.284374 105.047226Q27.909374 104.547226 28.846874 104.547226Q29.534374 104.547226 30.05 104.828476Q30.58125 105.109726 30.925 105.640976Q31.26875 106.1566 31.45625 106.9066Q31.64375 107.6566 31.64375 108.93785Q31.64375 110.453476 31.33125 111.37535Q31.034374 112.297226 30.409374 112.81285Q29.8 113.31285 28.846874 113.31285Q27.6125 113.31285 26.89375 112.422226Q26.05 111.359726 26.05 108.93785ZM27.128124 108.93785Q27.128124 111.047226 27.628124 111.75035Q28.128124 112.453476 28.846874 112.453476Q29.58125 112.453476 30.065624 111.75035Q30.565624 111.047226 30.565624 108.93785Q30.565624 106.81285 30.065624 106.12535Q29.58125 105.422226 28.83125 105.422226Q28.1125 105.422226 27.675 106.0316Q27.128124 106.81285 27.128124 108.93785ZM33.05 108.93785Q33.05 107.4066 33.3625 106.484726Q33.675 105.547226 34.284374 105.047226Q34.909374 104.547226 35.846874 104.547226Q36.534374 104.547226 37.05 104.828476Q37.58125 105.109726 37.925 105.640976Q38.26875 106.1566 38.45625 106.9066Q38.64375 107.6566 38.64375 108.93785Q38.64375 110.453476 38.33125 111.37535Q38.034374 112.297226 37.409374 112.81285Q36.8 113.31285 35.846874 113.31285Q34.6125 113.31285 33.89375 112.422226Q33.05 111.359726 33.05 108.93785ZM34.128124 108.93785Q34.128124 111.047226 34.628124 111.75035Q35.128124 112.453476 35.846874 112.453476Q36.58125 112.453476 37.065624 111.75035Q37.565624 111.047226 37.565624 108.93785Q37.565624 106.81285 37.065624 106.12535Q36.58125 105.422226 35.83125 105.422226Q35.1125 105.422226 34.675 106.0316Q34.128124 106.81285 34.128124 108.93785ZM40.05 108.93785Q40.05 107.4066 40.3625 106.484726Q40.675 105.547226 41.284374 105.047226Q41.909374 104.547226 42.846874 104.547226Q43.534374 104.547226 44.05 104.828476Q44.58125 105.109726 44.925 105.640976Q45.26875 106.1566 45.45625 106.9066Q45.64375 107.6566 45.64375 108.93785Q45.64375 110.453476 45.33125 111.37535Q45.034374 112.297226 44.409374 112.81285Q43.8 113.31285 42.846874 113.31285Q41.6125 113.31285 40.89375 112.422226Q40.05 111.359726 40.05 108.93785ZM41.128124 108.93785Q41.128124 111.047226 41.628124 111.75035Q42.128124 112.453476 42.846874 112.453476Q43.58125 112.453476 44.065624 111.75035Q44.565624 111.047226 44.565624 108.93785Q44.565624 106.81285 44.065624 106.12535Q43.58125 105.422226 42.83125 105.422226Q42.1125 105.422226 41.675 106.0316Q41.128124 106.81285 41.128124 108.93785Z" fill-rule="nonzero"/><path fill="#000000" d="M23.01875 65.916664L21.971874 65.916664L21.971874 59.197914Q21.58125 59.55729 20.95625 59.93229Q20.346874 60.291664 19.8625 60.46354L19.8625 59.447914Q20.7375 59.02604 21.39375 58.447914Q22.065624 57.854164 22.346874 57.291664L23.01875 57.291664L23.01875 65.916664ZM31.596874 64.90104L31.596874 65.916664L25.909374 65.916664Q25.909374 65.541664 26.034374 65.18229Q26.253124 64.604164 26.721874 64.041664Q27.20625 63.479164 28.1125 62.74479Q29.51875 61.58854 30.003124 60.916664Q30.503124 60.24479 30.503124 59.65104Q30.503124 59.02604 30.05 58.604164Q29.596874 58.166664 28.878124 58.166664Q28.1125 58.166664 27.659374 58.61979Q27.20625 59.072914 27.190624 59.885414L26.1125 59.77604Q26.221874 58.55729 26.940624 57.93229Q27.675 57.291664 28.909374 57.291664Q30.14375 57.291664 30.8625 57.979164Q31.58125 58.666664 31.58125 59.68229Q31.58125 60.197914 31.3625 60.697914Q31.159374 61.18229 30.659374 61.74479Q30.175 62.291664 29.05 63.24479Q28.096874 64.041664 27.815624 64.33854Q27.55 64.61979 27.378124 64.90104L31.596874 64.90104ZM33.05 61.68229Q33.05 60.15104 33.3625 59.229164Q33.675 58.291664 34.284374 57.791664Q34.909374 57.291664 35.846874 57.291664Q36.534374 57.291664 37.05 57.572914Q37.58125 57.854164 37.925 58.385414Q38.26875 58.90104 38.45625 59.65104Q38.64375 60.40104 38.64375 61.68229Q38.64375 63.197914 38.33125 64.11979Q38.034374 65.041664 37.409374 65.55729Q36.8 66.05729 35.846874 66.05729Q34.6125 66.05729 33.89375 65.166664Q33.05 64.104164 33.05 61.68229ZM34.128124 61.68229Q34.128124 63.791664 34.628124 64.49479Q35.128124 65.197914 35.846874 65.197914Q36.58125 65.197914 37.065624 64.49479Q37.565624 63.791664 37.565624 61.68229Q37.565624 59.55729 37.065624 58.86979Q36.58125 58.166664 35.83125 58.166664Q35.1125 58.166664 34.675 58.77604Q34.128124 59.55729 34.128124 61.68229ZM40.05 61.68229Q40.05 60.15104 40.3625 59.229164Q40.675 58.291664 41.284374 57.791664Q41.909374 57.291664 42.846874 57.291664Q43.534374 57.291664 44.05 57.572914Q44.58125 57.854164 44.925 58.385414Q45.26875 58.90104 45.45625 59.65104Q45.64375 60.40104 45.64375 61.68229Q45.64375 63.197914 45.33125 64.11979Q45.034374 65.041664 44.409374 65.55729Q43.8 66.05729 42.846874 66.05729Q41.6125 66.05729 40.89375 65.166664Q40.05 64.104164 40.05 61.68229ZM41.128124 61.68229Q41.128124 63.791664 41.628124 64.49479Q42.128124 65.197914 42.846874 65.197914Q43.58125 65.197914 44.065624 64.49479Q44.565624 63.791664 44.565624 61.68229Q44.565624 59.55729 44.065624 58.86979Q43.58125 58.166664 42.83125 58.166664Q42.1125 58.166664 41.675 58.77604Q41.128124 59.55729 41.128124 61.68229Z" fill-rule="nonzero"/><path fill="#4285f4" d="M504.45 56.916668C504.45 56.364384 504.8977 55.916668 505.45 55.916668L515.45 55.916668C516.00226 55.916668 516.45 56.364384 516.45 56.916668L516.45 66.916664C516.45 67.46895 516.00226 67.916664 515.45 67.916664L505.45 67.916664C504.8977 67.916664 504.45 67.46895 504.45 66.916664Z" fill-rule="nonzero"/><path fill="#1a1a1a" d="M525.3719 65.916664L525.3719 57.322914L526.52814 57.322914L531.04376 64.072914L531.04376 57.322914L532.1375 57.322914L532.1375 65.916664L530.96564 65.916664L526.45 59.166664L526.45 65.916664L525.3719 65.916664ZM533.85626 62.80729Q533.85626 61.072914 534.8094 60.24479Q535.60626 59.55729 536.7625 59.55729Q538.04376 59.55729 538.85626 60.40104Q539.6844 61.229164 539.6844 62.71354Q539.6844 63.916664 539.325 64.604164Q538.96564 65.291664 538.2625 65.68229Q537.575 66.05729 536.7625 66.05729Q535.46564 66.05729 534.65314 65.229164Q533.85626 64.385414 533.85626 62.80729ZM534.9344 62.80729Q534.9344 63.99479 535.45 64.58854Q535.98126 65.18229 536.7625 65.18229Q537.5594 65.18229 538.075 64.58854Q538.59064 63.99479 538.59064 62.77604Q538.59064 61.61979 538.0594 61.02604Q537.54376 60.43229 536.7625 60.43229Q535.98126 60.43229 535.45 61.02604Q534.9344 61.604164 534.9344 62.80729ZM542.96564 65.916664L540.60626 59.697914L541.71564 59.697914L543.0594 63.416664Q543.2625 64.02604 543.45 64.666664Q543.59064 64.18229 543.84064 63.49479L545.23126 59.697914L546.3094 59.697914L543.95 65.916664L542.96564 65.916664ZM551.4969 63.916664L552.59064 64.041664Q552.34064 64.99479 551.6375 65.52604Q550.9344 66.05729 549.85626 66.05729Q548.4969 66.05729 547.6844 65.21354Q546.8875 64.36979 546.8875 62.854164Q546.8875 61.291664 547.7 60.43229Q548.5125 59.55729 549.79376 59.55729Q551.04376 59.55729 551.825 60.40104Q552.6219 61.24479 552.6219 62.791664Q552.6219 62.885414 552.6219 63.072914L547.98126 63.072914Q548.04376 64.104164 548.5594 64.65104Q549.075 65.18229 549.85626 65.18229Q550.4344 65.18229 550.84064 64.885414Q551.2625 64.572914 551.4969 63.916664ZM548.04376 62.21354L551.5125 62.21354Q551.45 61.416664 551.1219 61.02604Q550.60626 60.416664 549.8094 60.416664Q549.075 60.416664 548.575 60.90104Q548.09064 61.385414 548.04376 62.21354ZM554.2469 65.916664L554.2469 59.697914L555.1844 59.697914L555.1844 60.572914Q555.48126 60.104164 555.96564 59.83854Q556.45 59.55729 557.075 59.55729Q557.7625 59.55729 558.2 59.83854Q558.65314 60.11979 558.825 60.635414Q559.575 59.55729 560.7469 59.55729Q561.6844 59.55729 562.16876 60.072914Q562.66876 60.572914 562.66876 61.65104L562.66876 65.916664L561.6219 65.916664L561.6219 61.99479Q561.6219 61.36979 561.5125 61.08854Q561.41876 60.80729 561.15314 60.635414Q560.8875 60.46354 560.5125 60.46354Q559.85626 60.46354 559.41876 60.90104Q558.9969 61.33854 558.9969 62.30729L558.9969 65.916664L557.9344 65.916664L557.9344 61.86979Q557.9344 61.166664 557.66876 60.822914Q557.41876 60.46354 556.84064 60.46354Q556.3875 60.46354 556.0125 60.697914Q555.6375 60.93229 555.46564 61.385414Q555.29376 61.83854 555.29376 62.68229L555.29376 65.916664L554.2469 65.916664ZM565.21564 65.916664L564.23126 65.916664L564.23126 57.322914L565.29376 57.322914L565.29376 60.385414Q565.96564 59.55729 566.9969 59.55729Q567.575 59.55729 568.075 59.791664Q568.59064 60.010414 568.91876 60.43229Q569.2625 60.854164 569.45 61.447914Q569.6375 62.041664 569.6375 62.71354Q569.6375 64.30729 568.84064 65.18229Q568.04376 66.05729 566.95 66.05729Q565.84064 66.05729 565.21564 65.135414L565.21564 65.916664ZM565.2 62.760414Q565.2 63.86979 565.5125 64.36979Q566.0125 65.18229 566.85626 65.18229Q567.54376 65.18229 568.04376 64.58854Q568.5594 63.99479 568.5594 62.791664Q568.5594 61.572914 568.075 60.99479Q567.59064 60.416664 566.90314 60.416664Q566.21564 60.416664 565.7 61.02604Q565.2 61.61979 565.2 62.760414ZM571.23126 65.916664L571.23126 59.697914L572.1844 59.697914L572.1844 60.635414Q572.54376 59.979164 572.84064 59.77604Q573.15314 59.55729 573.52814 59.55729Q574.0594 59.55729 574.60626 59.885414L574.2469 60.86979Q573.85626 60.635414 573.48126 60.635414Q573.1219 60.635414 572.84064 60.854164Q572.575 61.05729 572.46564 61.43229Q572.27814 61.99479 572.27814 62.65104L572.27814 65.916664L571.23126 65.916664ZM579.4969 63.916664L580.59064 64.041664Q580.34064 64.99479 579.6375 65.52604Q578.9344 66.05729 577.85626 66.05729Q576.4969 66.05729 575.6844 65.21354Q574.8875 64.36979 574.8875 62.854164Q574.8875 61.291664 575.7 60.43229Q576.5125 59.55729 577.79376 59.55729Q579.04376 59.55729 579.825 60.40104Q580.6219 61.24479 580.6219 62.791664Q580.6219 62.885414 580.6219 63.072914L575.98126 63.072914Q576.04376 64.104164 576.5594 64.65104Q577.075 65.18229 577.85626 65.18229Q578.4344 65.18229 578.84064 64.885414Q579.2625 64.572914 579.4969 63.916664ZM576.04376 62.21354L579.5125 62.21354Q579.45 61.416664 579.1219 61.02604Q578.60626 60.416664 577.8094 60.416664Q577.075 60.416664 576.575 60.90104Q576.09064 61.385414 576.04376 62.21354Z" fill-rule="nonzero"/><path fill="#ea4335" d="M504.45 80.916664C504.45 80.36438 504.8977 79.916664 505.45 79.916664L515.45 79.916664C516.00226 79.916664 516.45 80.36438 516.45 80.916664L516.45 90.916664C516.45 91.46895 516.00226 91.916664 515.45 91.916664L505.45 91.916664C504.8977 91.916664 504.45 91.46895 504.45 90.916664Z" fill-rule="nonzero"/><path fill="#1a1a1a" d="M525.3719 89.916664L525.3719 81.322914L528.34064 81.322914Q529.34064 81.322914 529.8719 81.447914Q530.60626 81.61979 531.1219 82.05729Q531.8094 82.635414 532.1375 83.541664Q532.48126 84.43229 532.48126 85.572914Q532.48126 86.55729 532.2469 87.30729Q532.02814 88.05729 531.66876 88.55729Q531.3094 89.05729 530.8719 89.33854Q530.45 89.61979 529.85626 89.77604Q529.2625 89.916664 528.48126 89.916664L525.3719 89.916664ZM526.5125 88.90104L528.34064 88.90104Q529.2 88.90104 529.6844 88.74479Q530.16876 88.58854 530.45 88.291664Q530.85626 87.90104 531.075 87.21354Q531.3094 86.52604 531.3094 85.55729Q531.3094 84.21354 530.85626 83.49479Q530.41876 82.760414 529.79376 82.510414Q529.325 82.33854 528.325 82.33854L526.5125 82.33854L526.5125 88.90104ZM534.2469 82.541664L534.2469 81.322914L535.3094 81.322914L535.3094 82.541664L534.2469 82.541664ZM534.2469 89.916664L534.2469 83.697914L535.3094 83.697914L535.3094 89.916664L534.2469 89.916664ZM541.3094 87.635414L542.34064 87.77604Q542.16876 88.83854 541.46564 89.447914Q540.7625 90.05729 539.7469 90.05729Q538.46564 90.05729 537.6844 89.229164Q536.91876 88.385414 536.91876 86.822914Q536.91876 85.822914 537.2469 85.072914Q537.59064 84.30729 538.2625 83.93229Q538.95 83.55729 539.7625 83.55729Q540.7625 83.55729 541.40314 84.072914Q542.0594 84.572914 542.2469 85.52604L541.21564 85.68229Q541.075 85.05729 540.7 84.74479Q540.325 84.416664 539.79376 84.416664Q538.9969 84.416664 538.4969 84.99479Q537.9969 85.55729 537.9969 86.791664Q537.9969 88.05729 538.48126 88.61979Q538.96564 89.18229 539.73126 89.18229Q540.35626 89.18229 540.7625 88.80729Q541.1844 88.43229 541.3094 87.635414ZM547.4969 87.916664L548.59064 88.041664Q548.34064 88.99479 547.6375 89.52604Q546.9344 90.05729 545.85626 90.05729Q544.4969 90.05729 543.6844 89.21354Q542.8875 88.36979 542.8875 86.854164Q542.8875 85.291664 543.7 84.43229Q544.5125 83.55729 545.79376 83.55729Q547.04376 83.55729 547.825 84.40104Q548.6219 85.24479 548.6219 86.791664Q548.6219 86.885414 548.6219 87.072914L543.98126 87.072914Q544.04376 88.104164 544.5594 88.65104Q545.075 89.18229 545.85626 89.18229Q546.4344 89.18229 546.84064 88.885414Q547.2625 88.572914 547.4969 87.916664ZM544.04376 86.21354L547.5125 86.21354Q547.45 85.416664 547.1219 85.02604Q546.60626 84.416664 545.8094 84.416664Q545.075 84.416664 544.575 84.90104Q544.09064 85.385414 544.04376 86.21354ZM550.2469 89.916664L550.2469 83.697914L551.1844 83.697914L551.1844 84.572914Q551.48126 84.104164 551.96564 83.83854Q552.45 83.55729 553.075 83.55729Q553.7625 83.55729 554.2 83.83854Q554.65314 84.11979 554.825 84.635414Q555.575 83.55729 556.7469 83.55729Q557.6844 83.55729 558.16876 84.072914Q558.66876 84.572914 558.66876 85.65104L558.66876 89.916664L557.6219 89.916664L557.6219 85.99479Q557.6219 85.36979 557.5125 85.08854Q557.41876 84.80729 557.15314 84.635414Q556.8875 84.46354 556.5125 84.46354Q555.85626 84.46354 555.41876 84.90104Q554.9969 85.33854 554.9969 86.30729L554.9969 89.916664L553.9344 89.916664L553.9344 85.86979Q553.9344 85.166664 553.66876 84.822914Q553.41876 84.46354 552.84064 84.46354Q552.3875 84.46354 552.0125 84.697914Q551.6375 84.93229 551.46564 85.385414Q551.29376 85.83854 551.29376 86.68229L551.29376 89.916664L550.2469 89.916664ZM561.21564 89.916664L560.23126 89.916664L560.23126 81.322914L561.29376 81.322914L561.29376 84.385414Q561.96564 83.55729 562.9969 83.55729Q563.575 83.55729 564.075 83.791664Q564.59064 84.010414 564.91876 84.43229Q565.2625 84.854164 565.45 85.447914Q565.6375 86.041664 565.6375 86.71354Q565.6375 88.30729 564.84064 89.18229Q564.04376 90.05729 562.95 90.05729Q561.84064 90.05729 561.21564 89.135414L561.21564 89.916664ZM561.2 86.760414Q561.2 87.86979 561.5125 88.36979Q562.0125 89.18229 562.85626 89.18229Q563.54376 89.18229 564.04376 88.58854Q564.5594 87.99479 564.5594 86.791664Q564.5594 85.572914 564.075 84.99479Q563.59064 84.416664 562.90314 84.416664Q562.21564 84.416664 561.7 85.02604Q561.2 85.61979 561.2 86.760414ZM567.23126 89.916664L567.23126 83.697914L568.1844 83.697914L568.1844 84.635414Q568.54376 83.979164 568.84064 83.77604Q569.15314 83.55729 569.52814 83.55729Q570.0594 83.55729 570.60626 83.885414L570.2469 84.86979Q569.85626 84.635414 569.48126 84.635414Q569.1219 84.635414 568.84064 84.854164Q568.575 85.05729 568.46564 85.43229Q568.27814 85.99479 568.27814 86.65104L568.27814 89.916664L567.23126 89.916664ZM575.4969 87.916664L576.59064 88.041664Q576.34064 88.99479 575.6375 89.52604Q574.9344 90.05729 573.85626 90.05729Q572.4969 90.05729 571.6844 89.21354Q570.8875 88.36979 570.8875 86.854164Q570.8875 85.291664 571.7 84.43229Q572.5125 83.55729 573.79376 83.55729Q575.04376 83.55729 575.825 84.40104Q576.6219 85.24479 576.6219 86.791664Q576.6219 86.885414 576.6219 87.072914L571.98126 87.072914Q572.04376 88.104164 572.5594 88.65104Q573.075 89.18229 573.85626 89.18229Q574.4344 89.18229 574.84064 88.885414Q575.2625 88.572914 575.4969 87.916664ZM572.04376 86.21354L575.5125 86.21354Q575.45 85.416664 575.1219 85.02604Q574.60626 84.416664 573.8094 84.416664Q573.075 84.416664 572.575 84.90104Q572.09064 85.385414 572.04376 86.21354Z" fill-rule="nonzero"/><path fill="#fbbc04" d="M504.45 104.916664C504.45 104.36438 504.8977 103.916664 505.45 103.916664L515.45 103.916664C516.00226 103.916664 516.45 104.36438 516.45 104.916664L516.45 114.916664C516.45 115.46895 516.00226 115.916664 515.45 115.916664L505.45 115.916664C504.8977 115.916664 504.45 115.46895 504.45 114.916664Z" fill-rule="nonzero"/><path fill="#1a1a1a" d="M529.40314 110.541664L529.40314 109.541664L533.02814 109.52604L533.02814 112.71354Q532.2 113.385414 531.3094 113.729164Q530.41876 114.05729 529.48126 114.05729Q528.21564 114.05729 527.16876 113.52604Q526.1375 112.979164 525.60626 111.96354Q525.09064 110.93229 525.09064 109.666664Q525.09064 108.40104 525.60626 107.322914Q526.1375 106.229164 527.1219 105.71354Q528.10626 105.18229 529.3875 105.18229Q530.325 105.18229 531.075 105.479164Q531.825 105.77604 532.2469 106.322914Q532.6844 106.854164 532.90314 107.729164L531.8875 108.010414Q531.6844 107.354164 531.3875 106.979164Q531.10626 106.604164 530.575 106.385414Q530.04376 106.15104 529.40314 106.15104Q528.6219 106.15104 528.04376 106.385414Q527.48126 106.61979 527.1219 107.010414Q526.77814 107.40104 526.59064 107.86979Q526.2625 108.666664 526.2625 109.58854Q526.2625 110.74479 526.65314 111.52604Q527.0594 112.291664 527.8094 112.666664Q528.5594 113.041664 529.41876 113.041664Q530.15314 113.041664 530.85626 112.760414Q531.5594 112.46354 531.91876 112.15104L531.91876 110.541664L529.40314 110.541664ZM538.4969 111.916664L539.59064 112.041664Q539.34064 112.99479 538.6375 113.52604Q537.9344 114.05729 536.85626 114.05729Q535.4969 114.05729 534.6844 113.21354Q533.8875 112.36979 533.8875 110.854164Q533.8875 109.291664 534.7 108.43229Q535.5125 107.55729 536.79376 107.55729Q538.04376 107.55729 538.825 108.40104Q539.6219 109.24479 539.6219 110.791664Q539.6219 110.885414 539.6219 111.072914L534.98126 111.072914Q535.04376 112.104164 535.5594 112.65104Q536.075 113.18229 536.85626 113.18229Q537.4344 113.18229 537.84064 112.885414Q538.2625 112.572914 538.4969 111.916664ZM535.04376 110.21354L538.5125 110.21354Q538.45 109.416664 538.1219 109.02604Q537.60626 108.416664 536.8094 108.416664Q536.075 108.416664 535.575 108.90104Q535.09064 109.385414 535.04376 110.21354ZM541.2469 113.916664L541.2469 107.697914L542.1844 107.697914L542.1844 108.572914Q542.8719 107.55729 544.16876 107.55729Q544.73126 107.55729 545.2 107.760414Q545.6844 107.96354 545.91876 108.291664Q546.15314 108.61979 546.2469 109.05729Q546.29376 109.354164 546.29376 110.08854L546.29376 113.916664L545.2469 113.916664L545.2469 110.135414Q545.2469 109.479164 545.1219 109.166664Q544.9969 108.854164 544.6844 108.666664Q544.3719 108.46354 543.95 108.46354Q543.27814 108.46354 542.77814 108.90104Q542.29376 109.322914 542.29376 110.510414L542.29376 113.916664L541.2469 113.916664ZM548.2469 113.916664L548.2469 107.697914L549.1844 107.697914L549.1844 108.572914Q549.8719 107.55729 551.16876 107.55729Q551.73126 107.55729 552.2 107.760414Q552.6844 107.96354 552.91876 108.291664Q553.15314 108.61979 553.2469 109.05729Q553.29376 109.354164 553.29376 110.08854L553.29376 113.916664L552.2469 113.916664L552.2469 110.135414Q552.2469 109.479164 552.1219 109.166664Q551.9969 108.854164 551.6844 108.666664Q551.3719 108.46354 550.95 108.46354Q550.27814 108.46354 549.77814 108.90104Q549.29376 109.322914 549.29376 110.510414L549.29376 113.916664L548.2469 113.916664ZM559.3094 113.15104Q558.71564 113.65104 558.16876 113.854164Q557.6375 114.05729 557.0125 114.05729Q555.98126 114.05729 555.4344 113.55729Q554.8875 113.05729 554.8875 112.27604Q554.8875 111.822914 555.09064 111.447914Q555.29376 111.05729 555.6375 110.83854Q555.98126 110.604164 556.40314 110.49479Q556.7 110.40104 557.34064 110.322914Q558.60626 110.18229 559.21564 109.96354Q559.21564 109.74479 559.21564 109.697914Q559.21564 109.041664 558.91876 108.77604Q558.5125 108.43229 557.71564 108.43229Q556.98126 108.43229 556.6219 108.697914Q556.2625 108.947914 556.09064 109.604164L555.0594 109.46354Q555.2 108.80729 555.52814 108.40104Q555.85626 107.99479 556.46564 107.77604Q557.075 107.55729 557.8719 107.55729Q558.66876 107.55729 559.16876 107.74479Q559.66876 107.93229 559.90314 108.21354Q560.1375 108.49479 560.23126 108.93229Q560.27814 109.197914 560.27814 109.90104L560.27814 111.30729Q560.27814 112.77604 560.34064 113.166664Q560.41876 113.55729 560.6219 113.916664L559.5125 113.916664Q559.35626 113.58854 559.3094 113.15104ZM559.21564 110.791664Q558.6375 111.02604 557.4969 111.197914Q556.84064 111.291664 556.575 111.416664Q556.3094 111.52604 556.15314 111.74479Q556.0125 111.96354 556.0125 112.24479Q556.0125 112.666664 556.325 112.947914Q556.65314 113.229164 557.2625 113.229164Q557.8719 113.229164 558.34064 112.96354Q558.825 112.697914 559.04376 112.229164Q559.21564 111.86979 559.21564 111.18229L559.21564 110.791664ZM562.2469 106.541664L562.2469 105.322914L563.3094 105.322914L563.3094 106.541664L562.2469 106.541664ZM562.2469 113.916664L562.2469 107.697914L563.3094 107.697914L563.3094 113.916664L562.2469 113.916664ZM564.85626 110.80729Q564.85626 109.072914 565.8094 108.24479Q566.60626 107.55729 567.7625 107.55729Q569.04376 107.55729 569.85626 108.40104Q570.6844 109.229164 570.6844 110.71354Q570.6844 111.916664 570.325 112.604164Q569.96564 113.291664 569.2625 113.68229Q568.575 114.05729 567.7625 114.05729Q566.46564 114.05729 565.65314 113.229164Q564.85626 112.385414 564.85626 110.80729ZM565.9344 110.80729Q565.9344 111.99479 566.45 112.58854Q566.98126 113.18229 567.7625 113.18229Q568.5594 113.18229 569.075 112.58854Q569.59064 111.99479 569.59064 110.77604Q569.59064 109.61979 569.0594 109.02604Q568.54376 108.43229 567.7625 108.43229Q566.98126 108.43229 566.45 109.02604Q565.9344 109.604164 565.9344 110.80729Z" fill-rule="nonzero"/><path fill="#34a853" d="M504.45 128.91667C504.45 128.36438 504.8977 127.916664 505.45 127.916664L515.45 127.916664C516.00226 127.916664 516.45 128.36438 516.45 128.91667L516.45 138.91667C516.45 139.46895 516.00226 139.91667 515.45 139.91667L505.45 139.91667C504.8977 139.91667 504.45 139.46895 504.45 138.91667Z" fill-rule="nonzero"/><path fill="#1a1a1a" d="M525.4344 137.91667L525.4344 129.32292L531.23126 129.32292L531.23126 130.33855L526.575 130.33855L526.575 132.9948L530.60626 132.9948L530.60626 134.01042L526.575 134.01042L526.575 137.91667L525.4344 137.91667ZM536.4969 135.91667L537.59064 136.04167Q537.34064 136.9948 536.6375 137.52605Q535.9344 138.0573 534.85626 138.0573Q533.4969 138.0573 532.6844 137.21355Q531.8875 136.3698 531.8875 134.85417Q531.8875 133.29167 532.7 132.4323Q533.5125 131.5573 534.79376 131.5573Q536.04376 131.5573 536.825 132.40105Q537.6219 133.2448 537.6219 134.79167Q537.6219 134.88542 537.6219 135.07292L532.98126 135.07292Q533.04376 136.10417 533.5594 136.65105Q534.075 137.1823 534.85626 137.1823Q535.4344 137.1823 535.84064 136.88542Q536.2625 136.57292 536.4969 135.91667ZM533.04376 134.21355L536.5125 134.21355Q536.45 133.41667 536.1219 133.02605Q535.60626 132.41667 534.8094 132.41667Q534.075 132.41667 533.575 132.90105Q533.09064 133.38542 533.04376 134.21355ZM540.21564 137.91667L539.23126 137.91667L539.23126 129.32292L540.29376 129.32292L540.29376 132.38542Q540.96564 131.5573 541.9969 131.5573Q542.575 131.5573 543.075 131.79167Q543.59064 132.01042 543.91876 132.4323Q544.2625 132.85417 544.45 133.44792Q544.6375 134.04167 544.6375 134.71355Q544.6375 136.3073 543.84064 137.1823Q543.04376 138.0573 541.95 138.0573Q540.84064 138.0573 540.21564 137.13542L540.21564 137.91667ZM540.2 134.76042Q540.2 135.8698 540.5125 136.3698Q541.0125 137.1823 541.85626 137.1823Q542.54376 137.1823 543.04376 136.58855Q543.5594 135.9948 543.5594 134.79167Q543.5594 133.57292 543.075 132.9948Q542.59064 132.41667 541.90314 132.41667Q541.21564 132.41667 540.7 133.02605Q540.2 133.6198 540.2 134.76042ZM547.21564 137.91667L546.23126 137.91667L546.23126 129.32292L547.29376 129.32292L547.29376 132.38542Q547.96564 131.5573 548.9969 131.5573Q549.575 131.5573 550.075 131.79167Q550.59064 132.01042 550.91876 132.4323Q551.2625 132.85417 551.45 133.44792Q551.6375 134.04167 551.6375 134.71355Q551.6375 136.3073 550.84064 137.1823Q550.04376 138.0573 548.95 138.0573Q547.84064 138.0573 547.21564 137.13542L547.21564 137.91667ZM547.2 134.76042Q547.2 135.8698 547.5125 136.3698Q548.0125 137.1823 548.85626 137.1823Q549.54376 137.1823 550.04376 136.58855Q550.5594 135.9948 550.5594 134.79167Q550.5594 133.57292 550.075 132.9948Q549.59064 132.41667 548.90314 132.41667Q548.21564 132.41667 547.7 133.02605Q547.2 133.6198 547.2 134.76042ZM553.23126 137.91667L553.23126 131.69792L554.1844 131.69792L554.1844 132.63542Q554.54376 131.97917 554.84064 131.77605Q555.15314 131.5573 555.52814 131.5573Q556.0594 131.5573 556.60626 131.88542L556.2469 132.8698Q555.85626 132.63542 555.48126 132.63542Q555.1219 132.63542 554.84064 132.85417Q554.575 133.0573 554.46564 133.4323Q554.27814 133.9948 554.27814 134.65105L554.27814 137.91667L553.23126 137.91667ZM561.3094 137.15105Q560.71564 137.65105 560.16876 137.85417Q559.6375 138.0573 559.0125 138.0573Q557.98126 138.0573 557.4344 137.5573Q556.8875 137.0573 556.8875 136.27605Q556.8875 135.82292 557.09064 135.44792Q557.29376 135.0573 557.6375 134.83855Q557.98126 134.60417 558.40314 134.4948Q558.7 134.40105 559.34064 134.32292Q560.60626 134.1823 561.21564 133.96355Q561.21564 133.7448 561.21564 133.69792Q561.21564 133.04167 560.91876 132.77605Q560.5125 132.4323 559.71564 132.4323Q558.98126 132.4323 558.6219 132.69792Q558.2625 132.94792 558.09064 133.60417L557.0594 133.46355Q557.2 132.8073 557.52814 132.40105Q557.85626 131.9948 558.46564 131.77605Q559.075 131.5573 559.8719 131.5573Q560.66876 131.5573 561.16876 131.7448Q561.66876 131.9323 561.90314 132.21355Q562.1375 132.4948 562.23126 132.9323Q562.27814 133.19792 562.27814 133.90105L562.27814 135.3073Q562.27814 136.77605 562.34064 137.16667Q562.41876 137.5573 562.6219 137.91667L561.5125 137.91667Q561.35626 137.58855 561.3094 137.15105ZM561.21564 134.79167Q560.6375 135.02605 559.4969 135.19792Q558.84064 135.29167 558.575 135.41667Q558.3094 135.52605 558.15314 135.7448Q558.0125 135.96355 558.0125 136.2448Q558.0125 136.66667 558.325 136.94792Q558.65314 137.22917 559.2625 137.22917Q559.8719 137.22917 560.34064 136.96355Q560.825 136.69792 561.04376 136.22917Q561.21564 135.8698 561.21564 135.1823L561.21564 134.79167ZM564.2469 130.54167L564.2469 129.32292L565.3094 129.32292L565.3094 130.54167L564.2469 130.54167ZM564.2469 137.91667L564.2469 131.69792L565.3094 131.69792L565.3094 137.91667L564.2469 137.91667ZM566.85626 134.8073Q566.85626 133.07292 567.8094 132.2448Q568.60626 131.5573 569.7625 131.5573Q571.04376 131.5573 571.85626 132.40105Q572.6844 133.22917 572.6844 134.71355Q572.6844 135.91667 572.325 136.60417Q571.96564 137.29167 571.2625 137.6823Q570.575 138.0573 569.7625 138.0573Q568.46564 138.0573 567.65314 137.22917Q566.85626 136.38542 566.85626 134.8073ZM567.9344 134.8073Q567.9344 135.9948 568.45 136.58855Q568.98126 137.1823 569.7625 137.1823Q570.5594 137.1823 571.075 136.58855Q571.59064 135.9948 571.59064 134.77605Q571.59064 133.6198 571.0594 133.02605Q570.54376 132.4323 569.7625 132.4323Q568.98126 132.4323 568.45 133.02605Q567.9344 133.60417 567.9344 134.8073Z" fill-rule="nonzero"/><path fill="#ff6d01" d="M504.45 152.91667C504.45 152.36438 504.8977 151.91667 505.45 151.91667L515.45 151.91667C516.00226 151.91667 516.45 152.36438 516.45 152.91667L516.45 162.91667C516.45 163.46895 516.00226 163.91667 515.45 163.91667L505.45 163.91667C504.8977 163.91667 504.45 163.46895 504.45 162.91667Z" fill-rule="nonzero"/><path fill="#1a1a1a" d="M525.34064 161.91667L525.34064 153.32292L527.0594 153.32292L529.09064 159.40105Q529.3719 160.26042 529.4969 160.6823Q529.6375 160.21355 529.95 159.3073L532.0125 153.32292L533.54376 153.32292L533.54376 161.91667L532.45 161.91667L532.45 154.72917L529.95 161.91667L528.91876 161.91667L526.4344 154.60417L526.4344 161.91667L525.34064 161.91667ZM539.3094 161.15105Q538.71564 161.65105 538.16876 161.85417Q537.6375 162.0573 537.0125 162.0573Q535.98126 162.0573 535.4344 161.5573Q534.8875 161.0573 534.8875 160.27605Q534.8875 159.82292 535.09064 159.44792Q535.29376 159.0573 535.6375 158.83855Q535.98126 158.60417 536.40314 158.4948Q536.7 158.40105 537.34064 158.32292Q538.60626 158.1823 539.21564 157.96355Q539.21564 157.7448 539.21564 157.69792Q539.21564 157.04167 538.91876 156.77605Q538.5125 156.4323 537.71564 156.4323Q536.98126 156.4323 536.6219 156.69792Q536.2625 156.94792 536.09064 157.60417L535.0594 157.46355Q535.2 156.8073 535.52814 156.40105Q535.85626 155.9948 536.46564 155.77605Q537.075 155.5573 537.8719 155.5573Q538.66876 155.5573 539.16876 155.7448Q539.66876 155.9323 539.90314 156.21355Q540.1375 156.4948 540.23126 156.9323Q540.27814 157.19792 540.27814 157.90105L540.27814 159.3073Q540.27814 160.77605 540.34064 161.16667Q540.41876 161.5573 540.6219 161.91667L539.5125 161.91667Q539.35626 161.58855 539.3094 161.15105ZM539.21564 158.79167Q538.6375 159.02605 537.4969 159.19792Q536.84064 159.29167 536.575 159.41667Q536.3094 159.52605 536.15314 159.7448Q536.0125 159.96355 536.0125 160.2448Q536.0125 160.66667 536.325 160.94792Q536.65314 161.22917 537.2625 161.22917Q537.8719 161.22917 538.34064 160.96355Q538.825 160.69792 539.04376 160.22917Q539.21564 159.8698 539.21564 159.1823L539.21564 158.79167ZM542.23126 161.91667L542.23126 155.69792L543.1844 155.69792L543.1844 156.63542Q543.54376 155.97917 543.84064 155.77605Q544.15314 155.5573 544.52814 155.5573Q545.0594 155.5573 545.60626 155.88542L545.2469 156.8698Q544.85626 156.63542 544.48126 156.63542Q544.1219 156.63542 543.84064 156.85417Q543.575 157.0573 543.46564 157.4323Q543.27814 157.9948 543.27814 158.65105L543.27814 161.91667L542.23126 161.91667ZM545.6844 161.91667L545.6844 161.0573L549.65314 156.51042Q548.96564 156.54167 548.45 156.54167L545.91876 156.54167L545.91876 155.69792L551.0125 155.69792L551.0125 156.38542L547.6375 160.33855L546.98126 161.0573Q547.7 161.01042 548.3094 161.01042L551.2 161.01042L551.2 161.91667L545.6844 161.91667ZM551.85626 158.8073Q551.85626 157.07292 552.8094 156.2448Q553.60626 155.5573 554.7625 155.5573Q556.04376 155.5573 556.85626 156.40105Q557.6844 157.22917 557.6844 158.71355Q557.6844 159.91667 557.325 160.60417Q556.96564 161.29167 556.2625 161.6823Q555.575 162.0573 554.7625 162.0573Q553.46564 162.0573 552.65314 161.22917Q551.85626 160.38542 551.85626 158.8073ZM552.9344 158.8073Q552.9344 159.9948 553.45 160.58855Q553.98126 161.1823 554.7625 161.1823Q555.5594 161.1823 556.075 160.58855Q556.59064 159.9948 556.59064 158.77605Q556.59064 157.6198 556.0594 157.02605Q555.54376 156.4323 554.7625 156.4323Q553.98126 156.4323 553.45 157.02605Q552.9344 157.60417 552.9344 158.8073Z" fill-rule="nonzero"/><path fill="#46bdc6" d="M504.45 176.91667C504.45 176.36438 504.8977 175.91667 505.45 175.91667L515.45 175.91667C516.00226 175.91667 516.45 176.36438 516.45 176.91667L516.45 186.91667C516.45 187.46895 516.00226 187.91667 515.45 187.91667L505.45 187.91667C504.8977 187.91667 504.45 187.46895 504.45 186.91667Z" fill-rule="nonzero"/><path fill="#1a1a1a" d="M524.4344 185.91667L527.73126 177.32292L528.95 177.32292L532.46564 185.91667L531.1844 185.91667L530.16876 183.3073L526.59064 183.3073L525.6375 185.91667L524.4344 185.91667ZM526.91876 182.38542L529.825 182.38542L528.9344 180.01042Q528.5125 178.9323 528.325 178.22917Q528.15314 179.0573 527.85626 179.8698L526.91876 182.38542ZM533.2469 188.3073L533.2469 179.69792L534.2 179.69792L534.2 180.4948Q534.54376 180.02605 534.96564 179.79167Q535.40314 179.5573 536.0125 179.5573Q536.8094 179.5573 537.41876 179.96355Q538.02814 180.3698 538.325 181.1198Q538.6375 181.8698 538.6375 182.76042Q538.6375 183.71355 538.29376 184.47917Q537.96564 185.2448 537.3094 185.65105Q536.65314 186.0573 535.9344 186.0573Q535.40314 186.0573 534.98126 185.83855Q534.5594 185.60417 534.29376 185.27605L534.29376 188.3073L533.2469 188.3073ZM534.2 182.83855Q534.2 184.04167 534.6844 184.6198Q535.16876 185.1823 535.85626 185.1823Q536.5594 185.1823 537.0594 184.58855Q537.5594 183.9948 537.5594 182.7448Q537.5594 181.5573 537.075 180.97917Q536.59064 180.38542 535.90314 180.38542Q535.23126 180.38542 534.71564 181.01042Q534.2 181.63542 534.2 182.83855ZM540.23126 185.91667L540.23126 179.69792L541.1844 179.69792L541.1844 180.63542Q541.54376 179.97917 541.84064 179.77605Q542.15314 179.5573 542.52814 179.5573Q543.0594 179.5573 543.60626 179.88542L543.2469 180.8698Q542.85626 180.63542 542.48126 180.63542Q542.1219 180.63542 541.84064 180.85417Q541.575 181.0573 541.46564 181.4323Q541.27814 181.9948 541.27814 182.65105L541.27814 185.91667L540.23126 185.91667ZM544.2469 178.54167L544.2469 177.32292L545.3094 177.32292L545.3094 178.54167L544.2469 178.54167ZM544.2469 185.91667L544.2469 179.69792L545.3094 179.69792L545.3094 185.91667L544.2469 185.91667ZM547.21564 185.91667L547.21564 177.32292L548.27814 177.32292L548.27814 185.91667L547.21564 185.91667ZM554.4969 183.91667L555.59064 184.04167Q555.34064 184.9948 554.6375 185.52605Q553.9344 186.0573 552.85626 186.0573Q551.4969 186.0573 550.6844 185.21355Q549.8875 184.3698 549.8875 182.85417Q549.8875 181.29167 550.7 180.4323Q551.5125 179.5573 552.79376 179.5573Q554.04376 179.5573 554.825 180.40105Q555.6219 181.2448 555.6219 182.79167Q555.6219 182.88542 555.6219 183.07292L550.98126 183.07292Q551.04376 184.10417 551.5594 184.65105Q552.075 185.1823 552.85626 185.1823Q553.4344 185.1823 553.84064 184.88542Q554.2625 184.57292 554.4969 183.91667ZM551.04376 182.21355L554.5125 182.21355Q554.45 181.41667 554.1219 181.02605Q553.60626 180.41667 552.8094 180.41667Q552.075 180.41667 551.575 180.90105Q551.09064 181.38542 551.04376 182.21355Z" fill-rule="nonzero"/><path fill="#7baaf7" d="M504.45 200.91667C504.45 200.36438 504.8977 199.91667 505.45 199.91667L515.45 199.91667C516.00226 199.91667 516.45 200.36438 516.45 200.91667L516.45 210.91667C516.45 211.46895 516.00226 211.91667 515.45 211.91667L505.45 211.91667C504.8977 211.91667 504.45 211.46895 504.45 210.91667Z" fill-rule="nonzero"/><path fill="#1a1a1a" d="M525.34064 209.91667L525.34064 201.32292L527.0594 201.32292L529.09064 207.40105Q529.3719 208.26042 529.4969 208.6823Q529.6375 208.21355 529.95 207.3073L532.0125 201.32292L533.54376 201.32292L533.54376 209.91667L532.45 209.91667L532.45 202.72917L529.95 209.91667L528.91876 209.91667L526.4344 202.60417L526.4344 209.91667L525.34064 209.91667ZM539.3094 209.15105Q538.71564 209.65105 538.16876 209.85417Q537.6375 210.0573 537.0125 210.0573Q535.98126 210.0573 535.4344 209.5573Q534.8875 209.0573 534.8875 208.27605Q534.8875 207.82292 535.09064 207.44792Q535.29376 207.0573 535.6375 206.83855Q535.98126 206.60417 536.40314 206.4948Q536.7 206.40105 537.34064 206.32292Q538.60626 206.1823 539.21564 205.96355Q539.21564 205.7448 539.21564 205.69792Q539.21564 205.04167 538.91876 204.77605Q538.5125 204.4323 537.71564 204.4323Q536.98126 204.4323 536.6219 204.69792Q536.2625 204.94792 536.09064 205.60417L535.0594 205.46355Q535.2 204.8073 535.52814 204.40105Q535.85626 203.9948 536.46564 203.77605Q537.075 203.5573 537.8719 203.5573Q538.66876 203.5573 539.16876 203.7448Q539.66876 203.9323 539.90314 204.21355Q540.1375 204.4948 540.23126 204.9323Q540.27814 205.19792 540.27814 205.90105L540.27814 207.3073Q540.27814 208.77605 540.34064 209.16667Q540.41876 209.5573 540.6219 209.91667L539.5125 209.91667Q539.35626 209.58855 539.3094 209.15105ZM539.21564 206.79167Q538.6375 207.02605 537.4969 207.19792Q536.84064 207.29167 536.575 207.41667Q536.3094 207.52605 536.15314 207.7448Q536.0125 207.96355 536.0125 208.2448Q536.0125 208.66667 536.325 208.94792Q536.65314 209.22917 537.2625 209.22917Q537.8719 209.22917 538.34064 208.96355Q538.825 208.69792 539.04376 208.22917Q539.21564 207.8698 539.21564 207.1823L539.21564 206.79167ZM542.04376 210.4323L543.075 210.58855Q543.1375 211.0573 543.4344 211.27605Q543.825 211.57292 544.4969 211.57292Q545.23126 211.57292 545.6219 211.27605Q546.02814 210.97917 546.16876 210.46355Q546.2625 210.13542 546.2469 209.10417Q545.5594 209.91667 544.52814 209.91667Q543.2469 209.91667 542.54376 208.9948Q541.84064 208.0573 541.84064 206.77605Q541.84064 205.88542 542.15314 205.13542Q542.48126 204.3698 543.09064 203.96355Q543.7 203.5573 544.52814 203.5573Q545.6375 203.5573 546.35626 204.44792L546.35626 203.69792L547.325 203.69792L547.325 209.07292Q547.325 210.52605 547.02814 211.13542Q546.73126 211.7448 546.09064 212.08855Q545.45 212.44792 544.5125 212.44792Q543.40314 212.44792 542.71564 211.94792Q542.02814 211.44792 542.04376 210.4323ZM542.91876 206.69792Q542.91876 207.91667 543.40314 208.47917Q543.8875 209.04167 544.6219 209.04167Q545.35626 209.04167 545.84064 208.47917Q546.34064 207.91667 546.34064 206.72917Q546.34064 205.58855 545.825 205.01042Q545.325 204.4323 544.60626 204.4323Q543.90314 204.4323 543.40314 205.01042Q542.91876 205.57292 542.91876 206.69792ZM549.04376 210.4323L550.075 210.58855Q550.1375 211.0573 550.4344 211.27605Q550.825 211.57292 551.4969 211.57292Q552.23126 211.57292 552.6219 211.27605Q553.02814 210.97917 553.16876 210.46355Q553.2625 210.13542 553.2469 209.10417Q552.5594 209.91667 551.52814 209.91667Q550.2469 209.91667 549.54376 208.9948Q548.84064 208.0573 548.84064 206.77605Q548.84064 205.88542 549.15314 205.13542Q549.48126 204.3698 550.09064 203.96355Q550.7 203.5573 551.52814 203.5573Q552.6375 203.5573 553.35626 204.44792L553.35626 203.69792L554.325 203.69792L554.325 209.07292Q554.325 210.52605 554.02814 211.13542Q553.73126 211.7448 553.09064 212.08855Q552.45 212.44792 551.5125 212.44792Q550.40314 212.44792 549.71564 211.94792Q549.02814 211.44792 549.04376 210.4323ZM549.91876 206.69792Q549.91876 207.91667 550.40314 208.47917Q550.8875 209.04167 551.6219 209.04167Q552.35626 209.04167 552.84064 208.47917Q553.34064 207.91667 553.34064 206.72917Q553.34064 205.58855 552.825 205.01042Q552.325 204.4323 551.60626 204.4323Q550.90314 204.4323 550.40314 205.01042Q549.91876 205.57292 549.91876 206.69792ZM556.2469 202.54167L556.2469 201.32292L557.3094 201.32292L557.3094 202.54167L556.2469 202.54167ZM556.2469 209.91667L556.2469 203.69792L557.3094 203.69792L557.3094 209.91667L556.2469 209.91667ZM558.85626 206.8073Q558.85626 205.07292 559.8094 204.2448Q560.60626 203.5573 561.7625 203.5573Q563.04376 203.5573 563.85626 204.40105Q564.6844 205.22917 564.6844 206.71355Q564.6844 207.91667 564.325 208.60417Q563.96564 209.29167 563.2625 209.6823Q562.575 210.0573 561.7625 210.0573Q560.46564 210.0573 559.65314 209.22917Q558.85626 208.38542 558.85626 206.8073ZM559.9344 206.8073Q559.9344 207.9948 560.45 208.58855Q560.98126 209.1823 561.7625 209.1823Q562.5594 209.1823 563.075 208.58855Q563.59064 207.9948 563.59064 206.77605Q563.59064 205.6198 563.0594 205.02605Q562.54376 204.4323 561.7625 204.4323Q560.98126 204.4323 560.45 205.02605Q559.9344 205.60417 559.9344 206.8073Z" fill-rule="nonzero"/><path fill="#f07b72" d="M504.45 224.91667C504.45 224.36438 504.8977 223.91667 505.45 223.91667L515.45 223.91667C516.00226 223.91667 516.45 224.36438 516.45 224.91667L516.45 234.91667C516.45 235.46895 516.00226 235.91667 515.45 235.91667L505.45 235.91667C504.8977 235.91667 504.45 235.46895 504.45 234.91667Z" fill-rule="nonzero"/><path fill="#1a1a1a" d="M529.40314 230.54167L529.40314 229.54167L533.02814 229.52605L533.02814 232.71355Q532.2 233.38542 531.3094 233.72917Q530.41876 234.0573 529.48126 234.0573Q528.21564 234.0573 527.16876 233.52605Q526.1375 232.97917 525.60626 231.96355Q525.09064 230.9323 525.09064 229.66667Q525.09064 228.40105 525.60626 227.32292Q526.1375 226.22917 527.1219 225.71355Q528.10626 225.1823 529.3875 225.1823Q530.325 225.1823 531.075 225.47917Q531.825 225.77605 532.2469 226.32292Q532.6844 226.85417 532.90314 227.72917L531.8875 228.01042Q531.6844 227.35417 531.3875 226.97917Q531.10626 226.60417 530.575 226.38542Q530.04376 226.15105 529.40314 226.15105Q528.6219 226.15105 528.04376 226.38542Q527.48126 226.6198 527.1219 227.01042Q526.77814 227.40105 526.59064 227.8698Q526.2625 228.66667 526.2625 229.58855Q526.2625 230.7448 526.65314 231.52605Q527.0594 232.29167 527.8094 232.66667Q528.5594 233.04167 529.41876 233.04167Q530.15314 233.04167 530.85626 232.76042Q531.5594 232.46355 531.91876 232.15105L531.91876 230.54167L529.40314 230.54167ZM534.2469 226.54167L534.2469 225.32292L535.3094 225.32292L535.3094 226.54167L534.2469 226.54167ZM534.2469 233.91667L534.2469 227.69792L535.3094 227.69792L535.3094 233.91667L534.2469 233.91667ZM541.325 233.91667L541.325 232.9948Q540.59064 234.0573 539.34064 234.0573Q538.79376 234.0573 538.3094 233.85417Q537.84064 233.63542 537.60626 233.32292Q537.3719 232.9948 537.27814 232.52605Q537.21564 232.22917 537.21564 231.54167L537.21564 227.69792L538.27814 227.69792L538.27814 231.15105Q538.27814 231.96355 538.34064 232.26042Q538.4344 232.66667 538.7469 232.91667Q539.075 233.15105 539.5594 233.15105Q540.02814 233.15105 540.4344 232.91667Q540.85626 232.66667 541.02814 232.2448Q541.21564 231.82292 541.21564 231.02605L541.21564 227.69792L542.2625 227.69792L542.2625 233.91667L541.325 233.91667ZM544.04376 234.4323L545.075 234.58855Q545.1375 235.0573 545.4344 235.27605Q545.825 235.57292 546.4969 235.57292Q547.23126 235.57292 547.6219 235.27605Q548.02814 234.97917 548.16876 234.46355Q548.2625 234.13542 548.2469 233.10417Q547.5594 233.91667 546.52814 233.91667Q545.2469 233.91667 544.54376 232.9948Q543.84064 232.0573 543.84064 230.77605Q543.84064 229.88542 544.15314 229.13542Q544.48126 228.3698 545.09064 227.96355Q545.7 227.5573 546.52814 227.5573Q547.6375 227.5573 548.35626 228.44792L548.35626 227.69792L549.325 227.69792L549.325 233.07292Q549.325 234.52605 549.02814 235.13542Q548.73126 235.7448 548.09064 236.08855Q547.45 236.44792 546.5125 236.44792Q545.40314 236.44792 544.71564 235.94792Q544.02814 235.44792 544.04376 234.4323ZM544.91876 230.69792Q544.91876 231.91667 545.40314 232.47917Q545.8875 233.04167 546.6219 233.04167Q547.35626 233.04167 547.84064 232.47917Q548.34064 231.91667 548.34064 230.72917Q548.34064 229.58855 547.825 229.01042Q547.325 228.4323 546.60626 228.4323Q545.90314 228.4323 545.40314 229.01042Q544.91876 229.57292 544.91876 230.69792ZM551.2469 233.91667L551.2469 227.69792L552.1844 227.69792L552.1844 228.57292Q552.8719 227.5573 554.16876 227.5573Q554.73126 227.5573 555.2 227.76042Q555.6844 227.96355 555.91876 228.29167Q556.15314 228.6198 556.2469 229.0573Q556.29376 229.35417 556.29376 230.08855L556.29376 233.91667L555.2469 233.91667L555.2469 230.13542Q555.2469 229.47917 555.1219 229.16667Q554.9969 228.85417 554.6844 228.66667Q554.3719 228.46355 553.95 228.46355Q553.27814 228.46355 552.77814 228.90105Q552.29376 229.32292 552.29376 230.51042L552.29376 233.91667L551.2469 233.91667ZM557.85626 230.8073Q557.85626 229.07292 558.8094 228.2448Q559.60626 227.5573 560.7625 227.5573Q562.04376 227.5573 562.85626 228.40105Q563.6844 229.22917 563.6844 230.71355Q563.6844 231.91667 563.325 232.60417Q562.96564 233.29167 562.2625 233.6823Q561.575 234.0573 560.7625 234.0573Q559.46564 234.0573 558.65314 233.22917Q557.85626 232.38542 557.85626 230.8073ZM558.9344 230.8073Q558.9344 231.9948 559.45 232.58855Q559.98126 233.1823 560.7625 233.1823Q561.5594 233.1823 562.075 232.58855Q562.59064 231.9948 562.59064 230.77605Q562.59064 229.6198 562.0594 229.02605Q561.54376 228.4323 560.7625 228.4323Q559.98126 228.4323 559.45 229.02605Q558.9344 229.60417 558.9344 230.8073Z" fill-rule="nonzero"/><path fill="#757575" d="M267.9375 23.2375L269.82812 23.2375L269.82812 31.503124Q269.82812 33.659374 269.34375 34.940624Q268.85938 36.20625 267.57812 37.003124Q266.3125 37.8 264.23438 37.8Q262.21875 37.8 260.9375 37.1125Q259.67188 36.409374 259.125 35.096874Q258.57812 33.784374 258.57812 31.503124L258.57812 23.2375L260.46875 23.2375L260.46875 31.4875Q260.46875 33.3625 260.8125 34.253124Q261.15625 35.128124 262.0 35.6125Q262.84375 36.08125 264.07812 36.08125Q266.15625 36.08125 267.04688 35.14375Q267.9375 34.190624 267.9375 31.4875L267.9375 23.2375ZM276.15625 35.971874L276.40625 37.534374Q275.67188 37.690624 275.07812 37.690624Q274.125 37.690624 273.59375 37.39375Q273.07812 37.08125 272.85938 36.596874Q272.64062 36.096874 272.64062 34.51875L272.64062 28.55L271.35938 28.55L271.35938 27.175L272.64062 27.175L272.64062 24.6125L274.39062 23.55L274.39062 27.175L276.15625 27.175L276.15625 28.55L274.39062 28.55L274.39062 34.6125Q274.39062 35.3625 274.48438 35.58125Q274.57812 35.784374 274.78125 35.925Q275.0 36.05 275.39062 36.05Q275.67188 36.05 276.15625 35.971874ZM285.42188 34.20625L287.23438 34.440624Q286.8125 36.01875 285.64062 36.909374Q284.48438 37.784374 282.67188 37.784374Q280.40625 37.784374 279.0625 36.39375Q277.73438 34.9875 277.73438 32.45625Q277.73438 29.83125 279.07812 28.39375Q280.42188 26.940624 282.57812 26.940624Q284.65625 26.940624 285.96875 28.3625Q287.29688 29.76875 287.29688 32.346874Q287.29688 32.503124 287.28125 32.815624L279.54688 32.815624Q279.64062 34.51875 280.51562 35.425Q281.39062 36.33125 282.6875 36.33125Q283.65625 36.33125 284.32812 35.83125Q285.01562 35.315624 285.42188 34.20625ZM279.64062 31.3625L285.4375 31.3625Q285.32812 30.065624 284.78125 29.409374Q283.9375 28.39375 282.59375 28.39375Q281.39062 28.39375 280.5625 29.20625Q279.73438 30.003124 279.64062 31.3625ZM289.3125 37.55L289.3125 27.175L290.90625 27.175L290.90625 28.659374Q292.04688 26.940624 294.20312 26.940624Q295.14062 26.940624 295.92188 27.284374Q296.71875 27.6125 297.10938 28.159374Q297.5 28.70625 297.65625 29.45625Q297.75 29.95625 297.75 31.175L297.75 37.55L295.98438 37.55L295.98438 31.2375Q295.98438 30.159374 295.78125 29.628124Q295.57812 29.096874 295.04688 28.784374Q294.53125 28.471874 293.82812 28.471874Q292.70312 28.471874 291.89062 29.190624Q291.07812 29.89375 291.07812 31.878124L291.07812 37.55L289.3125 37.55ZM304.15625 35.971874L304.40625 37.534374Q303.67188 37.690624 303.07812 37.690624Q302.125 37.690624 301.59375 37.39375Q301.07812 37.08125 300.85938 36.596874Q300.64062 36.096874 300.64062 34.51875L300.64062 28.55L299.35938 28.55L299.35938 27.175L300.64062 27.175L300.64062 24.6125L302.39062 23.55L302.39062 27.175L304.15625 27.175L304.15625 28.55L302.39062 28.55L302.39062 34.6125Q302.39062 35.3625 302.48438 35.58125Q302.57812 35.784374 302.78125 35.925Q303.0 36.05 303.39062 36.05Q303.67188 36.05 304.15625 35.971874ZM306.32812 25.253124L306.32812 23.2375L308.09375 23.2375L308.09375 25.253124L306.32812 25.253124ZM306.32812 37.55L306.32812 27.175L308.09375 27.175L308.09375 37.55L306.32812 37.55ZM317.9375 37.55L316.3125 37.55L316.3125 23.2375L318.0625 23.2375L318.0625 28.346874Q319.1875 26.940624 320.90625 26.940624Q321.85938 26.940624 322.71875 27.33125Q323.57812 27.721874 324.125 28.425Q324.67188 29.1125 324.98438 30.096874Q325.29688 31.08125 325.29688 32.20625Q325.29688 34.878124 323.98438 36.33125Q322.67188 37.784374 320.82812 37.784374Q318.98438 37.784374 317.9375 36.253124L317.9375 37.55ZM317.92188 32.284374Q317.92188 34.14375 318.42188 34.9875Q319.26562 36.33125 320.67188 36.33125Q321.82812 36.33125 322.65625 35.33125Q323.5 34.33125 323.5 32.346874Q323.5 30.315624 322.6875 29.3625Q321.89062 28.39375 320.75 28.39375Q319.59375 28.39375 318.75 29.39375Q317.92188 30.39375 317.92188 32.284374ZM326.67188 32.3625Q326.67188 29.4875 328.26562 28.096874Q329.60938 26.940624 331.53125 26.940624Q333.67188 26.940624 335.01562 28.346874Q336.375 29.753124 336.375 32.221874Q336.375 34.221874 335.78125 35.378124Q335.1875 36.51875 334.03125 37.159374Q332.89062 37.784374 331.53125 37.784374Q329.34375 37.784374 328.0 36.39375Q326.67188 34.9875 326.67188 32.3625ZM328.46875 32.3625Q328.46875 34.3625 329.32812 35.346874Q330.20312 36.33125 331.53125 36.33125Q332.84375 36.33125 333.70312 35.346874Q334.57812 34.346874 334.57812 32.3Q334.57812 30.378124 333.70312 29.39375Q332.82812 28.39375 331.53125 28.39375Q330.20312 28.39375 329.32812 29.39375Q328.46875 30.378124 328.46875 32.3625ZM342.15625 35.971874L342.40625 37.534374Q341.67188 37.690624 341.07812 37.690624Q340.125 37.690624 339.59375 37.39375Q339.07812 37.08125 338.85938 36.596874Q338.64062 36.096874 338.64062 34.51875L338.64062 28.55L337.35938 28.55L337.35938 27.175L338.64062 27.175L338.64062 24.6125L340.39062 23.55L340.39062 27.175L342.15625 27.175L342.15625 28.55L340.39062 28.55L340.39062 34.6125Q340.39062 35.3625 340.48438 35.58125Q340.57812 35.784374 340.78125 35.925Q341.0 36.05 341.39062 36.05Q341.67188 36.05 342.15625 35.971874Z" fill-rule="nonzero"/></svg>